{"title":"Walter 2015 Movies HC HDRip XViD ESubs New Source +Sample â˜»rDXâ˜»","uid":11757742,"size":740630814,"categoryP":"video","categoryS":"movies","magnet":"?xt=urn:btih:a1c88717c680867e244642932d66c88bb9e5a510&amp;dn=Walter+2015+Movies+HC+HDRip+XViD+ESubs+New+Source+%2BSample+%E2%98%BBrDX%E2%98%BB&amp;tr=udp%3A%2F%2Ftracker.openbittorrent.com%3A80&amp;tr=udp%3A%2F%2Fopen.demonii.com%3A1337&amp;tr=udp%3A%2F%2Ftracker.coppersurfer.tk%3A6969&amp;tr=udp%3A%2F%2Fexodus.desync.com%3A6969","seeders":1,"leechers":2,"uploader":"basicssom","files":3,"time":1426481645,"description":"----------------------------------------------------------------\nWalter 2015 English Movies HC HDRip XViD ESubs AAC New Source with Sample ~ â˜»rDXâ˜»\n\nSCREEN SHOTS &amp; POSTER:\n &lt;a href=&quot;\nhttp://planethost.co.nr/2015/3/Walter/11.html&quot; rel=&quot;nofollow&quot; target=&quot;_NEW&quot;&gt;\nhttp://planethost.co.nr/2015/3/Walter/11.html&lt;/a&gt; &lt;a href=&quot;\nhttp://planethost.co.nr/2015/3/Walter/1.html&quot; rel=&quot;nofollow&quot; target=&quot;_NEW&quot;&gt;\nhttp://planethost.co.nr/2015/3/Walter/1.html&lt;/a&gt; &lt;a href=&quot;\nhttp://planethost.co.nr/2015/3/Walter/2.html&quot; rel=&quot;nofollow&quot; target=&quot;_NEW&quot;&gt;\nhttp://planethost.co.nr/2015/3/Walter/2.html&lt;/a&gt; &lt;a href=&quot;\nhttp://planethost.co.nr/2015/3/Walter/3.html&quot; rel=&quot;nofollow&quot; target=&quot;_NEW&quot;&gt;\nhttp://planethost.co.nr/2015/3/Walter/3.html&lt;/a&gt; &lt;a href=&quot;\nhttp://planethost.co.nr/2015/3/Walter/4.html&quot; rel=&quot;nofollow&quot; target=&quot;_NEW&quot;&gt;\nhttp://planethost.co.nr/2015/3/Walter/4.html&lt;/a&gt; &lt;a href=&quot;\nhttp://planethost.co.nr/2015/3/Walter/5.html&quot; rel=&quot;nofollow&quot; target=&quot;_NEW&quot;&gt;\nhttp://planethost.co.nr/2015/3/Walter/5.html&lt;/a&gt; &lt;a href=&quot;\nhttp://planethost.co.nr/2015/3/Walter/6.html&quot; rel=&quot;nofollow&quot; target=&quot;_NEW&quot;&gt;\nhttp://planethost.co.nr/2015/3/Walter/6.html&lt;/a&gt; &lt;a href=&quot;\nhttp://planethost.co.nr/2015/3/Walter/7.html&quot; rel=&quot;nofollow&quot; target=&quot;_NEW&quot;&gt;\nhttp://planethost.co.nr/2015/3/Walter/7.html&lt;/a&gt; &lt;a href=&quot;\nhttp://planethost.co.nr/2015/3/Walter/8.html&quot; rel=&quot;nofollow&quot; target=&quot;_NEW&quot;&gt;\nhttp://planethost.co.nr/2015/3/Walter/8.html&lt;/a&gt; &lt;a href=&quot;\nhttp://planethost.co.nr/2015/3/Walter/9.html&quot; rel=&quot;nofollow&quot; target=&quot;_NEW&quot;&gt;\nhttp://planethost.co.nr/2015/3/Walter/9.html&lt;/a&gt; &lt;a href=&quot;\nhttp://planethost.co.nr/2015/3/Walter/10.html&quot; rel=&quot;nofollow&quot; target=&quot;_NEW&quot;&gt;\nhttp://planethost.co.nr/2015/3/Walter/10.html&lt;/a&gt;\n\nFormat                                   : Matroska\nFormat version                           : Version 4 / Version 2\nFile size                                : 693 MiB\nDuration                                 : 1h 26mn\nOverall bit rate                         : 1 125 Kbps\nMovie name                               : Walter 2015 English Movies HC HDRip XViD ESubs AAC New Source ~ rDX ~\n\nVideo\nID                                       : 1\nFormat                                   : MPEG-4 Visual\nFormat profile                           : Advanced Simple@L5\nFormat settings, BVOP                    : Yes\nFormat settings, QPel                    : No\nFormat settings, GMC                     : No warppoints\nFormat settings, Matrix                  : Default (H.263)\nCodec ID                                 : V_MS/VFW/FOURCC / XVID\nCodec ID/Hint                            : XviD\nDuration                                 : 1h 26mn\nBit rate                                 : 975 Kbps\nWidth                                    : 720 pixels\nHeight                                   : 304 pixels\nDisplay aspect ratio                     : 2.35:1\nFrame rate mode                          : Constant\nFrame rate                               : 23.976 fps\nColor space                              : YUV\nChroma subsampling                       : 4:2:0\nBit depth                                : 8 bits\nScan type                                : Progressive\nCompression mode                         : Lossy\nBits/(Pixel*Frame)                       : 0.186\nStream size                              : 600 MiB (87%)\nTitle                                    : ~ rDX ~\nWriting library                          : XviD 64\nDefault                                  : Yes\nForced                                   : No\n\nAudio\nID                                       : 2\nFormat                                   : MPEG Audio\nFormat version                           : Version 1\nFormat profile                           : Layer 3\nMode                                     : Joint stereo\nCodec ID                                 : A_MPEG/L3\nCodec ID/Hint                            : MP3\nDuration                                 : 1h 26mn\nBit rate mode                            : Constant\nBit rate                                 : 128 Kbps\nChannel(s)                               : 2 channels\nSampling rate                            : 48.0 KHz\nCompression mode                         : Lossy\nStream size                              : 78.8 MiB (11%)\nTitle                                    : ~ rDX ~\nWriting library                          : LAME3.99r\nEncoding settings                        : -m j -V 4 -q 3 -lowpass 17 -b 128\nDefault                                  : Yes\nForced                                   : No","torrent":{"xt":"urn:btih:a1c88717c680867e244642932d66c88bb9e5a510","amp;dn":"Walter+2015+Movies+HC+HDRip+XViD+ESubs+New+Source+%2BSample+%E2%98%BBrDX%E2%98%BB","amp;tr":["udp%3A%2F%2Ftracker.openbittorrent.com%3A80","udp%3A%2F%2Fopen.demonii.com%3A1337","udp%3A%2F%2Ftracker.coppersurfer.tk%3A6969","udp%3A%2F%2Fexodus.desync.com%3A6969"],"infoHash":"a1c88717c680867e244642932d66c88bb9e5a510","infoHashBuffer":{"type":"Buffer","data":[161,200,135,23,198,128,134,126,36,70,66,147,45,102,200,139,185,229,165,16]},"announce":[],"urlList":[]}}